ISO-10303-21;
HEADER;
FILE_DESCRIPTION (( 'STEP AP203' ),
    '1' );
FILE_NAME ('model.step',
    '2026-09-21T05:03:07',
    ( '' ),
    ( '' ),
    'SwSTEP 2.0',
    'SolidWorks 2022',
    '' );
FILE_SCHEMA (( 'CONFIG_CONTROL_DESIGN' ));
ENDSEC;

DATA;
#1 =( LENGTH_UNIT ( ) NAMED_UNIT ( * ) SI_UNIT ( .MILLI., .METRE. ) );
#2 = ORIENTED_EDGE ( 'NONE', *, *, #97, .T. ) ;
#3 = SHAPE_DEFINITION_REPRESENTATION ( #148, #29 ) ;
#4 = VECTOR ( 'NONE', #158, 1000.000000000000000 ) ;
#5 = APPROVAL_ROLE ( '' ) ;
#6 = DIRECTION ( 'NONE',  ( 0.000000000000000000, -0.000000000000000000, -1.000000000000000000 ) ) ;
#7 = CC_DESIGN_DATE_AND_TIME_ASSIGNMENT ( #199, #41, ( #56 ) ) ;
#8 = COORDINATED_UNIVERSAL_TIME_OFFSET ( 3, 0, .AHEAD. ) ;
#9 = ORIENTED_EDGE ( 'NONE', *, *, #242, .F. ) ;
#10 = CLOSED_SHELL ( 'NONE', ( #91, #88, #197, #210, #23, #38, #72, #150 ) ) ;
#11 = PERSON_AND_ORGANIZATION ( #247, #219 ) ;
#12 = VERTEX_POINT ( 'NONE', #250 ) ;
#13 = PLANE ( 'NONE',  #204 ) ;
#14 = FACE_OUTER_BOUND ( 'NONE', #161, .T. ) ;
#15 = ORIENTED_EDGE ( 'NONE', *, *, #97, .F. ) ;
#16 = VERTEX_POINT ( 'NONE', #178 ) ;
#17 = LOCAL_TIME ( 8, 3, 6.000000000000000000, #177 ) ;
#18 = CARTESIAN_POINT ( 'NONE',  ( 0.000000000000000000, 0.000000000000000000, 0.000000000000000000 ) ) ;
#19 = LINE ( 'NONE', #92, #101 ) ;
#20 = DIRECTION ( 'NONE',  ( 0.000000000000000000, -0.000000000000000000, 1.000000000000000000 ) ) ;
#21 = EDGE_LOOP ( 'NONE', ( #31, #159 ) ) ;
#22 = CIRCLE ( 'NONE', #157, 2.499999999999999556 ) ;
#23 = ADVANCED_FACE ( 'NONE', ( #37 ), #13, .F. ) ;
#24 = DIRECTION ( 'NONE',  ( 1.000000000000000000, 0.000000000000000000, 0.000000000000000000 ) ) ;
#25 = FACE_OUTER_BOUND ( 'NONE', #153, .T. ) ;
#26 = VECTOR ( 'NONE', #86, 1000.000000000000000 ) ;
#27 = APPROVAL ( #109, 'UNSPECIFIED' ) ;
#28 = APPROVAL_PERSON_ORGANIZATION ( #291, #138, #220 ) ;
#29 = ADVANCED_BREP_SHAPE_REPRESENTATION ( 'model', ( #237, #141 ), #171 ) ;
#30 = PERSON_AND_ORGANIZATION_ROLE ( 'design_owner' ) ;
#31 = ORIENTED_EDGE ( 'NONE', *, *, #198, .T. ) ;
#32 = DIRECTION ( 'NONE',  ( 1.000000000000000000, 0.000000000000000000, 0.000000000000000000 ) ) ;
#33 = CARTESIAN_POINT ( 'NONE',  ( 0.000000000000000000, 10.00000000000000000, 10.00000000000000000 ) ) ;
#34 = APPROVAL_DATE_TIME ( #156, #49 ) ;
#35 = PRODUCT_DEFINITION_FORMATION_WITH_SPECIFIED_SOURCE ( 'ANY', '', #248, .NOT_KNOWN. ) ;
#36 = PERSON_AND_ORGANIZATION ( #247, #219 ) ;
#37 = FACE_OUTER_BOUND ( 'NONE', #234, .T. ) ;
#38 = ADVANCED_FACE ( 'NONE', ( #105, #202 ), #81, .F. ) ;
#39 = ORIENTED_EDGE ( 'NONE', *, *, #242, .T. ) ;
#40 = AXIS2_PLACEMENT_3D ( 'NONE', #244, #310, #24 ) ;
#41 = DATE_TIME_ROLE ( 'creation_date' ) ;
#42 = ORIENTED_EDGE ( 'NONE', *, *, #254, .T. ) ;
#43 = EDGE_CURVE ( 'NONE', #140, #181, #228, .T. ) ;
#44 = CC_DESIGN_APPROVAL ( #49, ( #82 ) ) ;
#45 = DIRECTION ( 'NONE',  ( 0.000000000000000000, 0.000000000000000000, 1.000000000000000000 ) ) ;
#46 = ORIENTED_EDGE ( 'NONE', *, *, #99, .T. ) ;
#47 = DIRECTION ( 'NONE',  ( 0.000000000000000000, 1.000000000000000000, 0.000000000000000000 ) ) ;
#48 = LINE ( 'NONE', #302, #255 ) ;
#49 = APPROVAL ( #206, 'UNSPECIFIED' ) ;
#50 = CARTESIAN_POINT ( 'NONE',  ( 2.500000000000000444, 5.000000000000000000, 10.00000000000000000 ) ) ;
#51 = DIRECTION ( 'NONE',  ( -0.000000000000000000, -1.000000000000000000, -0.000000000000000000 ) ) ;
#52 = VECTOR ( 'NONE', #47, 1000.000000000000000 ) ;
#53 = VECTOR ( 'NONE', #145, 1000.000000000000000 ) ;
#54 = CC_DESIGN_DATE_AND_TIME_ASSIGNMENT ( #203, #226, ( #82 ) ) ;
#55 = CARTESIAN_POINT ( 'NONE',  ( 7.500000000000000000, 5.000000000000000000, 10.00000000000000000 ) ) ;
#56 = PRODUCT_DEFINITION ( 'UNKNOWN', '', #35, #285 ) ;
#57 = ORIENTED_EDGE ( 'NONE', *, *, #222, .T. ) ;
#58 = SECURITY_CLASSIFICATION_LEVEL ( 'unclassified' ) ;
#59 = UNCERTAINTY_MEASURE_WITH_UNIT (LENGTH_MEASURE( 1.000000000000000082E-05 ), #1, 'distance_accuracy_value', 'NONE');
#60 = ORIENTED_EDGE ( 'NONE', *, *, #303, .T. ) ;
#61 = AXIS2_PLACEMENT_3D ( 'NONE', #66, #166, #260 ) ;
#62 = ORIENTED_EDGE ( 'NONE', *, *, #198, .F. ) ;
#63 = VERTEX_POINT ( 'NONE', #136 ) ;
#64 = EDGE_CURVE ( 'NONE', #63, #235, #232, .T. ) ;
#65 = CARTESIAN_POINT ( 'NONE',  ( 10.00000000000000000, 0.000000000000000000, 10.00000000000000000 ) ) ;
#66 = CARTESIAN_POINT ( 'NONE',  ( 5.000000000000000000, 5.000000000000000000, 0.000000000000000000 ) ) ;
#67 = ORIENTED_EDGE ( 'NONE', *, *, #283, .F. ) ;
#68 = DIRECTION ( 'NONE',  ( 0.000000000000000000, 1.000000000000000000, 0.000000000000000000 ) ) ;
#69 = CARTESIAN_POINT ( 'NONE',  ( 7.500000000000000000, 5.000000000000000000, 10.00000000000000000 ) ) ;
#70 = VECTOR ( 'NONE', #288, 1000.000000000000000 ) ;
#71 = DIRECTION ( 'NONE',  ( -0.000000000000000000, -0.000000000000000000, -1.000000000000000000 ) ) ;
#72 = ADVANCED_FACE ( 'NONE', ( #208, #301 ), #84, .T. ) ;
#73 = LINE ( 'NONE', #69, #53 ) ;
#74 = APPROVAL_PERSON_ORGANIZATION ( #229, #49, #298 ) ;
#75 = PERSON_AND_ORGANIZATION ( #247, #219 ) ;
#76 = APPROVAL_DATE_TIME ( #273, #138 ) ;
#77 = ORIENTED_EDGE ( 'NONE', *, *, #222, .F. ) ;
#78 = APPLICATION_PROTOCOL_DEFINITION ( 'international standard', 'config_control_design', 1994, #133 ) ;
#79 = VERTEX_POINT ( 'NONE', #95 ) ;
#80 = LINE ( 'NONE', #154, #4 ) ;
#81 = PLANE ( 'NONE',  #269 ) ;
#82 = SECURITY_CLASSIFICATION ( '', '', #58 ) ;
#83 = ORIENTED_EDGE ( 'NONE', *, *, #147, .T. ) ;
#84 = PLANE ( 'NONE',  #245 ) ;
#85 = EDGE_CURVE ( 'NONE', #79, #235, #306, .T. ) ;
#86 = DIRECTION ( 'NONE',  ( 1.000000000000000000, 0.000000000000000000, 0.000000000000000000 ) ) ;
#87 = ORIENTED_EDGE ( 'NONE', *, *, #180, .T. ) ;
#88 = ADVANCED_FACE ( 'NONE', ( #25 ), #266, .F. ) ;
#89 = DIRECTION ( 'NONE',  ( 1.000000000000000000, 0.000000000000000000, 0.000000000000000000 ) ) ;
#90 = EDGE_LOOP ( 'NONE', ( #2, #281, #57, #42 ) ) ;
#91 = ADVANCED_FACE ( 'NONE', ( #286 ), #309, .F. ) ;
#92 = CARTESIAN_POINT ( 'NONE',  ( 10.00000000000000000, 10.00000000000000000, 10.00000000000000000 ) ) ;
#93 = CARTESIAN_POINT ( 'NONE',  ( 5.000000000000000000, 5.000000000000000000, 10.00000000000000000 ) ) ;
#94 = DIRECTION ( 'NONE',  ( -1.000000000000000000, -0.000000000000000000, -0.000000000000000000 ) ) ;
#95 = CARTESIAN_POINT ( 'NONE',  ( 0.000000000000000000, 10.00000000000000000, 0.000000000000000000 ) ) ;
#96 = CC_DESIGN_APPROVAL ( #138, ( #35 ) ) ;
#97 = EDGE_CURVE ( 'NONE', #16, #63, #193, .T. ) ;
#98 = AXIS2_PLACEMENT_3D ( 'NONE', #282, #236, #137 ) ;
#99 = EDGE_CURVE ( 'NONE', #293, #12, #73, .T. ) ;
#100 = ORIENTED_EDGE ( 'NONE', *, *, #180, .F. ) ;
#101 = VECTOR ( 'NONE', #188, 1000.000000000000000 ) ;
#102 = APPROVAL_PERSON_ORGANIZATION ( #152, #27, #5 ) ;
#103 = ORIENTED_EDGE ( 'NONE', *, *, #147, .F. ) ;
#104 = PERSON_AND_ORGANIZATION_ROLE ( 'design_supplier' ) ;
#105 = FACE_BOUND ( 'NONE', #165, .T. ) ;
#106 = CALENDAR_DATE ( 2026, 21, 9 ) ;
#107 = ORIENTED_EDGE ( 'NONE', *, *, #290, .F. ) ;
#108 = VECTOR ( 'NONE', #279, 1000.000000000000000 ) ;
#109 = APPROVAL_STATUS ( 'not_yet_approved' ) ;
#110 = ORIENTED_EDGE ( 'NONE', *, *, #85, .T. ) ;
#111 = CARTESIAN_POINT ( 'NONE',  ( 0.000000000000000000, 0.000000000000000000, 10.00000000000000000 ) ) ;
#112 = LOCAL_TIME ( 8, 3, 6.000000000000000000, #8 ) ;
#113 = CARTESIAN_POINT ( 'NONE',  ( 5.000000000000000000, 5.000000000000000000, 10.00000000000000000 ) ) ;
#114 = DIRECTION ( 'NONE',  ( 0.000000000000000000, 0.000000000000000000, 1.000000000000000000 ) ) ;
#115 = CARTESIAN_POINT ( 'NONE',  ( 10.00000000000000000, 0.000000000000000000, 10.00000000000000000 ) ) ;
#116 = ORIENTED_EDGE ( 'NONE', *, *, #43, .F. ) ;
#117 = VECTOR ( 'NONE', #71, 1000.000000000000000 ) ;
#118 = CARTESIAN_POINT ( 'NONE',  ( 2.500000000000000444, 5.000000000000000000, 0.000000000000000000 ) ) ;
#119 = DIRECTION ( 'NONE',  ( -1.000000000000000000, 0.000000000000000000, -0.000000000000000000 ) ) ;
#120 = CARTESIAN_POINT ( 'NONE',  ( 0.000000000000000000, 0.000000000000000000, 0.000000000000000000 ) ) ;
#121 = AXIS2_PLACEMENT_3D ( 'NONE', #170, #218, #190 ) ;
#122 = DIRECTION ( 'NONE',  ( 1.000000000000000000, 0.000000000000000000, 0.000000000000000000 ) ) ;
#123 = CARTESIAN_POINT ( 'NONE',  ( 0.000000000000000000, 0.000000000000000000, 0.000000000000000000 ) ) ;
#124 = COORDINATED_UNIVERSAL_TIME_OFFSET ( 3, 0, .AHEAD. ) ;
#125 = COORDINATED_UNIVERSAL_TIME_OFFSET ( 3, 0, .AHEAD. ) ;
#126 = DIRECTION ( 'NONE',  ( 0.000000000000000000, -1.000000000000000000, 0.000000000000000000 ) ) ;
#127 = CIRCLE ( 'NONE', #98, 2.499999999999999556 ) ;
#128 = PERSON_AND_ORGANIZATION_ROLE ( 'classification_officer' ) ;
#129 = DIRECTION ( 'NONE',  ( -1.000000000000000000, 0.000000000000000000, -0.000000000000000000 ) ) ;
#130 = EDGE_CURVE ( 'NONE', #140, #293, #231, .T. ) ;
#131 = CC_DESIGN_PERSON_AND_ORGANIZATION_ASSIGNMENT ( #271, #104, ( #35 ) ) ;
#132 = EDGE_LOOP ( 'NONE', ( #259, #39, #292, #295 ) ) ;
#133 = APPLICATION_CONTEXT ( 'configuration controlled 3d designs of mechanical parts and assemblies' ) ;
#134 = PLANE ( 'NONE',  #187 ) ;
#135 = VERTEX_POINT ( 'NONE', #264 ) ;
#136 = CARTESIAN_POINT ( 'NONE',  ( 0.000000000000000000, 0.000000000000000000, 10.00000000000000000 ) ) ;
#137 = DIRECTION ( 'NONE',  ( 1.000000000000000000, 0.000000000000000000, 0.000000000000000000 ) ) ;
#138 = APPROVAL ( #227, 'UNSPECIFIED' ) ;
#139 = LINE ( 'NONE', #284, #241 ) ;
#140 = VERTEX_POINT ( 'NONE', #50 ) ;
#141 = AXIS2_PLACEMENT_3D ( 'NONE', #182, #230, #122 ) ;
#142 = DIRECTION ( 'NONE',  ( 0.000000000000000000, 0.000000000000000000, -1.000000000000000000 ) ) ;
#143 = CARTESIAN_POINT ( 'NONE',  ( 0.000000000000000000, 0.000000000000000000, 10.00000000000000000 ) ) ;
#144 = EDGE_CURVE ( 'NONE', #63, #135, #243, .T. ) ;
#145 = DIRECTION ( 'NONE',  ( 0.000000000000000000, 0.000000000000000000, -1.000000000000000000 ) ) ;
#146 = AXIS2_PLACEMENT_3D ( 'NONE', #115, #287, #114 ) ;
#147 = EDGE_CURVE ( 'NONE', #162, #240, #48, .T. ) ;
#148 = PRODUCT_DEFINITION_SHAPE ( 'NONE', 'NONE',  #56 ) ;
#149 = CC_DESIGN_APPROVAL ( #27, ( #56 ) ) ;
#150 = ADVANCED_FACE ( 'NONE', ( #164 ), #304, .F. ) ;
#151 = MECHANICAL_CONTEXT ( 'NONE', #195, 'mechanical' ) ;
#152 = PERSON_AND_ORGANIZATION ( #247, #219 ) ;
#153 = EDGE_LOOP ( 'NONE', ( #110, #277, #15, #60 ) ) ;
#154 = CARTESIAN_POINT ( 'NONE',  ( 0.000000000000000000, 10.00000000000000000, 10.00000000000000000 ) ) ;
#155 = DIRECTION ( 'NONE',  ( 0.000000000000000000, 0.000000000000000000, -1.000000000000000000 ) ) ;
#156 = DATE_AND_TIME ( #275, #174 ) ;
#157 = AXIS2_PLACEMENT_3D ( 'NONE', #215, #45, #89 ) ;
#158 = DIRECTION ( 'NONE',  ( -0.000000000000000000, -0.000000000000000000, -1.000000000000000000 ) ) ;
#159 = ORIENTED_EDGE ( 'NONE', *, *, #246, .T. ) ;
#160 = CALENDAR_DATE ( 2026, 21, 9 ) ;
#161 = EDGE_LOOP ( 'NONE', ( #83, #67, #77, #256 ) ) ;
#162 = VERTEX_POINT ( 'NONE', #305 ) ;
#163 = AXIS2_PLACEMENT_3D ( 'NONE', #93, #216, #168 ) ;
#164 = FACE_OUTER_BOUND ( 'NONE', #132, .T. ) ;
#165 = EDGE_LOOP ( 'NONE', ( #183, #9 ) ) ;
#166 = DIRECTION ( 'NONE',  ( 0.000000000000000000, 0.000000000000000000, 1.000000000000000000 ) ) ;
#167 = CARTESIAN_POINT ( 'NONE',  ( 10.00000000000000000, 0.000000000000000000, 10.00000000000000000 ) ) ;
#168 = DIRECTION ( 'NONE',  ( -1.000000000000000000, 0.000000000000000000, 0.000000000000000000 ) ) ;
#169 = EDGE_CURVE ( 'NONE', #135, #162, #209, .T. ) ;
#170 = CARTESIAN_POINT ( 'NONE',  ( 0.000000000000000000, 0.000000000000000000, 10.00000000000000000 ) ) ;
#171 =( GEOMETRIC_REPRESENTATION_CONTEXT ( 3 ) GLOBAL_UNCERTAINTY_ASSIGNED_CONTEXT ( ( #59 ) ) GLOBAL_UNIT_ASSIGNED_CONTEXT ( ( #1, #252, #276 ) ) REPRESENTATION_CONTEXT ( 'NONE', 'WORKASPACE' ) );
#172 = VECTOR ( 'NONE', #257, 1000.000000000000000 ) ;
#173 = PERSON_AND_ORGANIZATION_ROLE ( 'creator' ) ;
#174 = LOCAL_TIME ( 8, 3, 6.000000000000000000, #124 ) ;
#175 = PERSON_AND_ORGANIZATION ( #247, #219 ) ;
#176 = ORIENTED_EDGE ( 'NONE', *, *, #290, .T. ) ;
#177 = COORDINATED_UNIVERSAL_TIME_OFFSET ( 3, 0, .AHEAD. ) ;
#178 = CARTESIAN_POINT ( 'NONE',  ( 0.000000000000000000, 10.00000000000000000, 10.00000000000000000 ) ) ;
#179 = CARTESIAN_POINT ( 'NONE',  ( 0.000000000000000000, 0.000000000000000000, 0.000000000000000000 ) ) ;
#180 = EDGE_CURVE ( 'NONE', #240, #79, #233, .T. ) ;
#181 = VERTEX_POINT ( 'NONE', #118 ) ;
#182 = CARTESIAN_POINT ( 'NONE',  ( 0.000000000000000000, 0.000000000000000000, 0.000000000000000000 ) ) ;
#183 = ORIENTED_EDGE ( 'NONE', *, *, #130, .F. ) ;
#184 = DIRECTION ( 'NONE',  ( 0.000000000000000000, 0.000000000000000000, -1.000000000000000000 ) ) ;
#185 = DIRECTION ( 'NONE',  ( -1.000000000000000000, 0.000000000000000000, 0.000000000000000000 ) ) ;
#186 = CARTESIAN_POINT ( 'NONE',  ( 10.00000000000000000, 10.00000000000000000, 10.00000000000000000 ) ) ;
#187 = AXIS2_PLACEMENT_3D ( 'NONE', #211, #213, #20 ) ;
#188 = DIRECTION ( 'NONE',  ( -0.000000000000000000, -0.000000000000000000, -1.000000000000000000 ) ) ;
#189 = LOCAL_TIME ( 8, 3, 6.000000000000000000, #249 ) ;
#190 = DIRECTION ( 'NONE',  ( 0.000000000000000000, 0.000000000000000000, -1.000000000000000000 ) ) ;
#191 = PLANE ( 'NONE',  #146 ) ;
#192 = CC_DESIGN_PERSON_AND_ORGANIZATION_ASSIGNMENT ( #75, #173, ( #56 ) ) ;
#193 = LINE ( 'NONE', #143, #70 ) ;
#194 = CC_DESIGN_SECURITY_CLASSIFICATION ( #82, ( #35 ) ) ;
#195 = APPLICATION_CONTEXT ( 'configuration controlled 3d designs of mechanical parts and assemblies' ) ;
#196 = CIRCLE ( 'NONE', #61, 2.499999999999999556 ) ;
#197 = ADVANCED_FACE ( 'NONE', ( #263 ), #134, .F. ) ;
#198 = EDGE_CURVE ( 'NONE', #181, #12, #22, .T. ) ;
#199 = DATE_AND_TIME ( #160, #17 ) ;
#200 = EDGE_LOOP ( 'NONE', ( #212, #100, #103, #107 ) ) ;
#201 = DATE_AND_TIME ( #223, #189 ) ;
#202 = FACE_OUTER_BOUND ( 'NONE', #90, .T. ) ;
#203 = DATE_AND_TIME ( #106, #112 ) ;
#204 = AXIS2_PLACEMENT_3D ( 'NONE', #33, #126, #6 ) ;
#205 = ORIENTED_EDGE ( 'NONE', *, *, #64, .T. ) ;
#206 = APPROVAL_STATUS ( 'not_yet_approved' ) ;
#207 = APPROVAL_DATE_TIME ( #201, #27 ) ;
#208 = FACE_BOUND ( 'NONE', #21, .T. ) ;
#209 = LINE ( 'NONE', #167, #117 ) ;
#210 = ADVANCED_FACE ( 'NONE', ( #14 ), #191, .F. ) ;
#211 = CARTESIAN_POINT ( 'NONE',  ( 0.000000000000000000, 0.000000000000000000, 10.00000000000000000 ) ) ;
#212 = ORIENTED_EDGE ( 'NONE', *, *, #85, .F. ) ;
#213 = DIRECTION ( 'NONE',  ( 0.000000000000000000, 1.000000000000000000, 0.000000000000000000 ) ) ;
#214 = CC_DESIGN_PERSON_AND_ORGANIZATION_ASSIGNMENT ( #11, #30, ( #248 ) ) ;
#215 = CARTESIAN_POINT ( 'NONE',  ( 5.000000000000000000, 5.000000000000000000, 0.000000000000000000 ) ) ;
#216 = DIRECTION ( 'NONE',  ( 0.000000000000000000, 0.000000000000000000, -1.000000000000000000 ) ) ;
#217 = VECTOR ( 'NONE', #51, 1000.000000000000000 ) ;
#218 = DIRECTION ( 'NONE',  ( 1.000000000000000000, 0.000000000000000000, 0.000000000000000000 ) ) ;
#219 = ORGANIZATION ( 'UNSPECIFIED', 'UNSPECIFIED', '' ) ;
#220 = APPROVAL_ROLE ( '' ) ;
#221 = ORIENTED_EDGE ( 'NONE', *, *, #303, .F. ) ;
#222 = EDGE_CURVE ( 'NONE', #135, #225, #280, .T. ) ;
#223 = CALENDAR_DATE ( 2026, 21, 9 ) ;
#224 = VECTOR ( 'NONE', #32, 1000.000000000000000 ) ;
#225 = VERTEX_POINT ( 'NONE', #186 ) ;
#226 = DATE_TIME_ROLE ( 'classification_date' ) ;
#227 = APPROVAL_STATUS ( 'not_yet_approved' ) ;
#228 = LINE ( 'NONE', #253, #108 ) ;
#229 = PERSON_AND_ORGANIZATION ( #247, #219 ) ;
#230 = DIRECTION ( 'NONE',  ( 0.000000000000000000, 0.000000000000000000, 1.000000000000000000 ) ) ;
#231 = CIRCLE ( 'NONE', #40, 2.499999999999999556 ) ;
#232 = LINE ( 'NONE', #111, #172 ) ;
#233 = LINE ( 'NONE', #239, #289 ) ;
#234 = EDGE_LOOP ( 'NONE', ( #87, #221, #261, #251 ) ) ;
#235 = VERTEX_POINT ( 'NONE', #18 ) ;
#236 = DIRECTION ( 'NONE',  ( 0.000000000000000000, 0.000000000000000000, 1.000000000000000000 ) ) ;
#237 = MANIFOLD_SOLID_BREP ( 'Cut-Extrude1', #10 ) ;
#238 = DIRECTION ( 'NONE',  ( -1.000000000000000000, -0.000000000000000000, -0.000000000000000000 ) ) ;
#239 = CARTESIAN_POINT ( 'NONE',  ( 0.000000000000000000, 10.00000000000000000, 0.000000000000000000 ) ) ;
#240 = VERTEX_POINT ( 'NONE', #258 ) ;
#241 = VECTOR ( 'NONE', #238, 1000.000000000000000 ) ;
#242 = EDGE_CURVE ( 'NONE', #293, #140, #127, .T. ) ;
#243 = LINE ( 'NONE', #307, #26 ) ;
#244 = CARTESIAN_POINT ( 'NONE',  ( 5.000000000000000000, 5.000000000000000000, 10.00000000000000000 ) ) ;
#245 = AXIS2_PLACEMENT_3D ( 'NONE', #123, #184, #119 ) ;
#246 = EDGE_CURVE ( 'NONE', #12, #181, #196, .T. ) ;
#247 = PERSON ( 'UNSPECIFIED', 'UNSPECIFIED', 'UNSPECIFIED', ('UNSPECIFIED'), ('UNSPECIFIED'), ('UNSPECIFIED') ) ;
#248 = PRODUCT ( 'model', 'model', '', ( #151 ) ) ;
#249 = COORDINATED_UNIVERSAL_TIME_OFFSET ( 3, 0, .AHEAD. ) ;
#250 = CARTESIAN_POINT ( 'NONE',  ( 7.500000000000000000, 5.000000000000000000, 0.000000000000000000 ) ) ;
#251 = ORIENTED_EDGE ( 'NONE', *, *, #283, .T. ) ;
#252 =( NAMED_UNIT ( * ) PLANE_ANGLE_UNIT ( ) SI_UNIT ( $, .RADIAN. ) );
#253 = CARTESIAN_POINT ( 'NONE',  ( 2.500000000000000444, 5.000000000000000000, 10.00000000000000000 ) ) ;
#254 = EDGE_CURVE ( 'NONE', #225, #16, #139, .T. ) ;
#255 = VECTOR ( 'NONE', #68, 1000.000000000000000 ) ;
#256 = ORIENTED_EDGE ( 'NONE', *, *, #169, .T. ) ;
#257 = DIRECTION ( 'NONE',  ( -0.000000000000000000, -0.000000000000000000, -1.000000000000000000 ) ) ;
#258 = CARTESIAN_POINT ( 'NONE',  ( 10.00000000000000000, 10.00000000000000000, 0.000000000000000000 ) ) ;
#259 = ORIENTED_EDGE ( 'NONE', *, *, #99, .F. ) ;
#260 = DIRECTION ( 'NONE',  ( 1.000000000000000000, 0.000000000000000000, 0.000000000000000000 ) ) ;
#261 = ORIENTED_EDGE ( 'NONE', *, *, #254, .F. ) ;
#262 = CC_DESIGN_PERSON_AND_ORGANIZATION_ASSIGNMENT ( #175, #296, ( #35 ) ) ;
#263 = FACE_OUTER_BOUND ( 'NONE', #297, .T. ) ;
#264 = CARTESIAN_POINT ( 'NONE',  ( 10.00000000000000000, 0.000000000000000000, 10.00000000000000000 ) ) ;
#265 = LOCAL_TIME ( 8, 3, 6.000000000000000000, #125 ) ;
#266 = PLANE ( 'NONE',  #121 ) ;
#267 = AXIS2_PLACEMENT_3D ( 'NONE', #113, #142, #185 ) ;
#268 = CC_DESIGN_PERSON_AND_ORGANIZATION_ASSIGNMENT ( #36, #128, ( #82 ) ) ;
#269 = AXIS2_PLACEMENT_3D ( 'NONE', #274, #155, #129 ) ;
#270 = APPLICATION_PROTOCOL_DEFINITION ( 'international standard', 'config_control_design', 1994, #195 ) ;
#271 = PERSON_AND_ORGANIZATION ( #247, #219 ) ;
#272 = ORIENTED_EDGE ( 'NONE', *, *, #130, .T. ) ;
#273 = DATE_AND_TIME ( #294, #265 ) ;
#274 = CARTESIAN_POINT ( 'NONE',  ( 0.000000000000000000, 0.000000000000000000, 10.00000000000000000 ) ) ;
#275 = CALENDAR_DATE ( 2026, 21, 9 ) ;
#276 =( NAMED_UNIT ( * ) SI_UNIT ( $, .STERADIAN. ) SOLID_ANGLE_UNIT ( ) );
#277 = ORIENTED_EDGE ( 'NONE', *, *, #64, .F. ) ;
#278 = EDGE_LOOP ( 'NONE', ( #272, #46, #62, #116 ) ) ;
#279 = DIRECTION ( 'NONE',  ( 0.000000000000000000, 0.000000000000000000, -1.000000000000000000 ) ) ;
#280 = LINE ( 'NONE', #65, #52 ) ;
#281 = ORIENTED_EDGE ( 'NONE', *, *, #144, .T. ) ;
#282 = CARTESIAN_POINT ( 'NONE',  ( 5.000000000000000000, 5.000000000000000000, 10.00000000000000000 ) ) ;
#283 = EDGE_CURVE ( 'NONE', #225, #240, #19, .T. ) ;
#284 = CARTESIAN_POINT ( 'NONE',  ( 0.000000000000000000, 10.00000000000000000, 10.00000000000000000 ) ) ;
#285 = DESIGN_CONTEXT ( 'detailed design', #133, 'design' ) ;
#286 = FACE_OUTER_BOUND ( 'NONE', #278, .T. ) ;
#287 = DIRECTION ( 'NONE',  ( -1.000000000000000000, 0.000000000000000000, 0.000000000000000000 ) ) ;
#288 = DIRECTION ( 'NONE',  ( -0.000000000000000000, -1.000000000000000000, -0.000000000000000000 ) ) ;
#289 = VECTOR ( 'NONE', #94, 1000.000000000000000 ) ;
#290 = EDGE_CURVE ( 'NONE', #235, #162, #299, .T. ) ;
#291 = PERSON_AND_ORGANIZATION ( #247, #219 ) ;
#292 = ORIENTED_EDGE ( 'NONE', *, *, #43, .T. ) ;
#293 = VERTEX_POINT ( 'NONE', #55 ) ;
#294 = CALENDAR_DATE ( 2026, 21, 9 ) ;
#295 = ORIENTED_EDGE ( 'NONE', *, *, #246, .F. ) ;
#296 = PERSON_AND_ORGANIZATION_ROLE ( 'creator' ) ;
#297 = EDGE_LOOP ( 'NONE', ( #176, #308, #300, #205 ) ) ;
#298 = APPROVAL_ROLE ( '' ) ;
#299 = LINE ( 'NONE', #179, #224 ) ;
#300 = ORIENTED_EDGE ( 'NONE', *, *, #144, .F. ) ;
#301 = FACE_OUTER_BOUND ( 'NONE', #200, .T. ) ;
#302 = CARTESIAN_POINT ( 'NONE',  ( 10.00000000000000000, 0.000000000000000000, 0.000000000000000000 ) ) ;
#303 = EDGE_CURVE ( 'NONE', #16, #79, #80, .T. ) ;
#304 = CYLINDRICAL_SURFACE ( 'NONE', #267, 2.499999999999999556 ) ;
#305 = CARTESIAN_POINT ( 'NONE',  ( 10.00000000000000000, 0.000000000000000000, 0.000000000000000000 ) ) ;
#306 = LINE ( 'NONE', #120, #217 ) ;
#307 = CARTESIAN_POINT ( 'NONE',  ( 0.000000000000000000, 0.000000000000000000, 10.00000000000000000 ) ) ;
#308 = ORIENTED_EDGE ( 'NONE', *, *, #169, .F. ) ;
#309 = CYLINDRICAL_SURFACE ( 'NONE', #163, 2.499999999999999556 ) ;
#310 = DIRECTION ( 'NONE',  ( 0.000000000000000000, 0.000000000000000000, 1.000000000000000000 ) ) ;
#311 = PRODUCT_RELATED_PRODUCT_CATEGORY ( 'detail', '', ( #248 ) ) ;
ENDSEC;
END-ISO-10303-21;
