0
SECTION
2
HEADER
9
$INSUNITS
70
4
0
ENDSEC
0
SECTION
2
ENTITIES
0
CIRCLE
8
OUTLINE
62
7
10
0
20
0
30
0
40
80
0
CIRCLE
8
HIDDEN
62
8
10
0
20
0
30
0
40
45
0
CIRCLE
8
OUTLINE
62
7
10
0
20
0
30
0
40
30
0
CIRCLE
8
CENTER
62
1
10
0
20
0
30
0
40
60
0
CIRCLE
8
OUTLINE
62
7
10
60
20
0
30
0
40
7
0
CIRCLE
8
OUTLINE
62
7
10
30.000000000000007
20
51.96152422706631
30
0
40
7
0
CIRCLE
8
OUTLINE
62
7
10
-29.999999999999986
20
51.96152422706632
30
0
40
7
0
CIRCLE
8
OUTLINE
62
7
10
-60
20
7.34788079488412e-15
30
0
40
7
0
CIRCLE
8
OUTLINE
62
7
10
-30.00000000000003
20
-51.961524227066306
30
0
40
7
0
CIRCLE
8
OUTLINE
62
7
10
30.000000000000007
20
-51.96152422706631
30
0
40
7
0
LINE
8
CENTER
62
1
10
-95
20
0
30
0
11
95
21
0
31
0
0
LINE
8
CENTER
62
1
10
0
20
-95
30
0
11
0
21
95
31
0
0
LINE
8
OUTLINE
62
7
10
-8
20
30
30
0
11
-8
21
36
31
0
0
LINE
8
OUTLINE
62
7
10
-8
20
36
30
0
11
8
21
36
31
0
0
LINE
8
OUTLINE
62
7
10
8
20
36
30
0
11
8
21
30
31
0
0
LINE
8
OUTLINE
62
7
10
160
20
-80
30
0
11
180
21
-80
31
0
0
LINE
8
OUTLINE
62
7
10
180
20
-80
30
0
11
180
21
-45
31
0
0
LINE
8
OUTLINE
62
7
10
180
20
-45
30
0
11
200
21
-45
31
0
0
LINE
8
OUTLINE
62
7
10
200
20
-45
30
0
11
200
21
45
31
0
0
LINE
8
OUTLINE
62
7
10
200
20
45
30
0
11
180
21
45
31
0
0
LINE
8
OUTLINE
62
7
10
180
20
45
30
0
11
180
21
80
31
0
0
LINE
8
OUTLINE
62
7
10
180
20
80
30
0
11
160
21
80
31
0
0
LINE
8
OUTLINE
62
7
10
160
20
80
30
0
11
160
21
-80
31
0
0
LINE
8
HIDDEN
62
8
10
160
20
-30
30
0
11
200
21
-30
31
0
0
LINE
8
HIDDEN
62
8
10
160
20
30
30
0
11
200
21
30
31
0
0
LINE
8
CENTER
62
1
10
150
20
0
30
0
11
210
21
0
31
0
0
ARC
8
OUTLINE
62
7
10
180
20
45
30
0
40
3
50
90
51
180
0
LINE
8
DIM
62
3
10
-80
20
-110
30
0
11
80
21
-110
31
0
0
LINE
8
DIM
62
3
10
-80
20
-105
30
0
11
-80
21
-115
31
0
0
LINE
8
DIM
62
3
10
80
20
-105
30
0
11
80
21
-115
31
0
0
TEXT
8
TEXT
62
3
10
-12
20
-106
30
0
40
5
1
%%c160
0
LINE
8
DIM
62
3
10
160
20
-100
30
0
11
200
21
-100
31
0
0
TEXT
8
TEXT
62
3
10
172
20
-96
30
0
40
5
1
40
0
TEXT
8
TEXT
62
5
10
-60
20
112
30
0
40
6
1
MẶT BÍCH DN60 — PN16
0
TEXT
8
TEXT
62
5
10
-60
20
103
30
0
40
4
1
6 lỗ %%c14 trên PCD %%c120
0
LINE
8
FRAME
62
7
10
-100
20
-170
30
0
11
230
21
-170
31
0
0
LINE
8
FRAME
62
7
10
230
20
-170
30
0
11
230
21
-130
31
0
0
LINE
8
FRAME
62
7
10
230
20
-130
30
0
11
-100
21
-130
31
0
0
LINE
8
FRAME
62
7
10
-100
20
-130
30
0
11
-100
21
-170
31
0
0
LINE
8
FRAME
62
7
10
100
20
-170
30
0
11
100
21
-130
31
0
0
LINE
8
FRAME
62
7
10
100
20
-150
30
0
11
230
21
-150
31
0
0
TEXT
8
TEXT
62
7
10
-94
20
-146
30
0
40
7
1
FLANGE DN60
0
TEXT
8
TEXT
62
7
10
-94
20
-162
30
0
40
4
1
Vật liệu: Thép C45  —  Tỉ lệ 1:1
0
TEXT
8
TEXT
62
7
10
106
20
-144
30
0
40
4
1
Bản vẽ số: DEMO-001
0
TEXT
8
TEXT
62
7
10
106
20
-164
30
0
40
4
1
Đơn vị: mm
0
ENDSEC
0
EOF
